<svg version="1" xmlns="http://www.w3.org/2000/svg" width="444" height="444" viewBox="0 0 333.000000 333.000000"><path d="M144.5 1.5c-39.2 9.1-68.8 39.1-77 77.8-2 9-2 31.4 0 40.5 2.9 14.1 9.9 29 18.8 40.6l5.4 6.8-2.4 2.6c-1.2 1.4-2.3 3-2.3 3.7 0 2.3 3.5 4.4 8 4.7 3.8.2 4.6.7 4.8 2.6.4 2.8 3.6 4.6 7.2 3.8 2.4-.4 2.8-.2 3.4 2.5.6 3.4 4.1 5.2 6.9 3.7 1.5-.8 2.6-.2 5.5 2.8 4.7 4.7 13.6 8.9 23 10.9 9.2 1.9 15.4 1.9 26.2 0 11.2-2 16.6-1.9 21.8.5 3.8 1.7 4.2 2.2 4.2 5.5 0 3.2-1 4.6-7.6 11.3-10.4 10.6-14.9 16.7-17.5 23.6-1.9 5.1-2.1 7.2-1.6 14.5 1.4 19.7 9 35.3 25.2 51.7 7.2 7.3 25.2 21.4 27.4 21.4.6 0 0-1.7-1.4-4-3.3-5.2-6.6-12.6-10-22-2.1-5.8-2.8-10.1-3.2-18.7-1-20.2 2.6-27.1 27.8-53 22.6-23.4 25.4-27.9 25.2-41.3-.1-9.7-2.1-15.3-9.1-25.2l-4.1-5.7 2-2.5c1.2-1.5 1.9-4 1.9-6.5 0-3.3.4-4.1 1.8-4.1 2.8 0 5.4-3.4 5-6.7-.2-2.3.3-3.1 2.7-4.3 4-2 4.6-6.2 1.2-9.2l-2.3-2.1 1.9-8.1c2.5-10.6 1.9-35.4-1.1-45.6-10.4-35.1-35.1-60.4-68.9-70.6-7.7-2.4-10.9-2.7-25.8-3-12.1-.3-18.7.1-23 1.1z"/></svg>